<svg
    width="1200"
    height="1200"
    viewBox="0 0 1200 1200"
    fill="none"
    xmlns="http://www.w3.org/2000/svg"
>
    <!-- Board background -->
    <rect x="0" y="0" width="1200" height="1200" fill="#fff" stroke="#999" strokeWidth="8" />
    
    <!-- Grid lines - 19x19 Go board -->
    <!-- Vertical lines -->
    <line x1="100" y1="100" x2="100" y2="1100" stroke="#000" strokeWidth="2" />
    <line x1="158" y1="100" x2="158" y2="1100" stroke="#000" strokeWidth="2" />
    <line x1="216" y1="100" x2="216" y2="1100" stroke="#000" strokeWidth="2" />
    <line x1="274" y1="100" x2="274" y2="1100" stroke="#000" strokeWidth="2" />
    <line x1="332" y1="100" x2="332" y2="1100" stroke="#000" strokeWidth="2" />
    <line x1="390" y1="100" x2="390" y2="1100" stroke="#000" strokeWidth="2" />
    <line x1="448" y1="100" x2="448" y2="1100" stroke="#000" strokeWidth="2" />
    <line x1="506" y1="100" x2="506" y2="1100" stroke="#000" strokeWidth="2" />
    <line x1="564" y1="100" x2="564" y2="1100" stroke="#000" strokeWidth="2" />
    <line x1="622" y1="100" x2="622" y2="1100" stroke="#000" strokeWidth="2" />
    <line x1="680" y1="100" x2="680" y2="1100" stroke="#000" strokeWidth="2" />
    <line x1="738" y1="100" x2="738" y2="1100" stroke="#000" strokeWidth="2" />
    <line x1="796" y1="100" x2="796" y2="1100" stroke="#000" strokeWidth="2" />
    <line x1="854" y1="100" x2="854" y2="1100" stroke="#000" strokeWidth="2" />
    <line x1="912" y1="100" x2="912" y2="1100" stroke="#000" strokeWidth="2" />
    <line x1="970" y1="100" x2="970" y2="1100" stroke="#000" strokeWidth="2" />
    <line x1="1028" y1="100" x2="1028" y2="1100" stroke="#000" strokeWidth="2" />
    <line x1="1086" y1="100" x2="1086" y2="1100" stroke="#000" strokeWidth="2" />
    
    <!-- Horizontal lines -->
    <line x1="100" y1="100" x2="1100" y2="100" stroke="#000" strokeWidth="2" />
    <line x1="100" y1="158" x2="1100" y2="158" stroke="#000" strokeWidth="2" />
    <line x1="100" y1="216" x2="1100" y2="216" stroke="#000" strokeWidth="2" />
    <line x1="100" y1="274" x2="1100" y2="274" stroke="#000" strokeWidth="2" />
    <line x1="100" y1="332" x2="1100" y2="332" stroke="#000" strokeWidth="2" />
    <line x1="100" y1="390" x2="1100" y2="390" stroke="#000" strokeWidth="2" />
    <line x1="100" y1="448" x2="1100" y2="448" stroke="#000" strokeWidth="2" />
    <line x1="100" y1="506" x2="1100" y2="506" stroke="#000" strokeWidth="2" />
    <line x1="100" y1="564" x2="1100" y2="564" stroke="#000" strokeWidth="2" />
    <line x1="100" y1="622" x2="1100" y2="622" stroke="#000" strokeWidth="2" />
    <line x1="100" y1="680" x2="1100" y2="680" stroke="#000" strokeWidth="2" />
    <line x1="100" y1="738" x2="1100" y2="738" stroke="#000" strokeWidth="2" />
    <line x1="100" y1="796" x2="1100" y2="796" stroke="#000" strokeWidth="2" />
    <line x1="100" y1="854" x2="1100" y2="854" stroke="#000" strokeWidth="2" />
    <line x1="100" y1="912" x2="1100" y2="912" stroke="#000" strokeWidth="2" />
    <line x1="100" y1="970" x2="1100" y2="970" stroke="#000" strokeWidth="2" />
    <line x1="100" y1="1028" x2="1100" y2="1028" stroke="#000" strokeWidth="2" />
    <line x1="100" y1="1086" x2="1100" y2="1086" stroke="#000" strokeWidth="2" />
    
    <!-- Star points (hoshi) - 9 points on a 19x19 board -->
    <circle cx="274" cy="274" r="8" fill="#000" />
    <circle cx="622" cy="274" r="8" fill="#000" />
    <circle cx="970" cy="274" r="8" fill="#000" />
    <circle cx="274" cy="622" r="8" fill="#000" />
    <circle cx="622" cy="622" r="8" fill="#000" />
    <circle cx="970" cy="622" r="8" fill="#000" />
    <circle cx="274" cy="970" r="8" fill="#000" />
    <circle cx="622" cy="970" r="8" fill="#000" />
    <circle cx="970" cy="970" r="8" fill="#000" />
</svg>
